<svg width="818" height="145" viewBox="0 0 818 145" fill="none" xmlns="http://www.w3.org/2000/svg">
<path d="M766.043 117.018C762.919 115.018 760.231 112.312 758.038 108.954C756.116 106.078 754.588 102.903 753.497 99.5039C752.368 95.9808 751.198 92.5541 750.038 89.3154C748.73 85.5951 747.363 81.9802 745.955 78.5627C744.519 75.0625 742.739 72.0441 740.68 69.5761C739.253 67.9155 737.904 66.4108 736.689 65.0942C735.964 64.3098 735.179 63.6492 734.358 63.1171C735.89 62.3556 737.331 61.5391 738.679 60.6812C740.748 59.3601 742.877 57.4517 745.005 55.025C747.134 52.5937 748.909 49.9193 750.285 47.0522C751.4 44.6622 752.272 41.708 752.868 38.2904C753.506 34.671 752.914 31.5195 751.116 28.9276C749.455 26.6064 747.359 25.3358 744.84 25.1477C740.904 24.955 738.124 26.923 736.753 30.836C736.445 31.758 736.349 32.8728 736.455 34.1664C736.556 35.3362 736.679 36.327 736.803 37.0472C736.955 38.2629 737.501 39.6161 738.473 41.208C739.303 42.5612 739.932 43.9695 740.358 45.3733C740.881 47.3275 740.634 49.3551 739.588 51.5845C738.831 53.2084 737.776 54.6443 736.418 55.8599C735.005 57.1352 733.62 58.1903 732.312 58.9977C729.83 60.5344 727.184 61.718 724.454 62.5024C722.087 63.1859 719.674 63.6951 717.275 64.0254V37.5014C717.275 36.2078 717.743 35.0105 718.697 33.8269C719.688 32.6067 720.697 31.7764 721.725 31.3452C723.349 30.6066 723.394 29.3634 723.339 28.8634L723.326 28.7625C723.197 28.1019 722.633 27.4001 721.472 27.4001H700.471C699.196 27.4001 698.673 28.1937 698.604 28.8588C698.549 29.3588 698.591 30.5974 700.196 31.3589C701.187 31.7718 702.155 32.5975 703.077 33.804C703.985 34.9875 704.421 36.2032 704.421 37.5014V84.3565C704.421 85.6409 703.99 86.7694 703.109 87.8154C702.178 88.9163 701.201 89.6824 700.196 90.1044L700.068 90.1641C699.508 90.4944 699.068 90.9347 698.76 91.4944C698.375 92.2651 698.591 92.8247 698.76 93.0954C699.077 93.6046 699.65 93.866 700.471 93.866H721.472C722.472 93.866 722.927 93.4348 723.133 93.0724C723.339 92.7192 723.482 92.1183 722.995 91.2834C722.697 90.7742 722.28 90.3934 721.766 90.1365L721.697 90.1044C720.674 89.6824 719.66 88.898 718.66 87.7924C717.729 86.7465 717.275 85.6226 717.275 84.3565V68.9109C719.78 68.443 722.303 67.7824 724.803 66.9429C726.101 67.4292 727.454 68.4659 728.821 70.0256C730.042 71.4569 730.959 73.3239 731.532 75.5855C732.147 78.0168 732.863 80.5903 733.647 83.228C734.225 85.2786 734.817 87.4621 735.409 89.7145C736 91.9807 736.702 94.2743 737.482 96.4854C738.845 100.605 740.436 104.05 742.203 106.72C744.033 109.555 746.753 112.33 750.308 114.959C753.905 117.628 758.382 119.289 763.584 119.885C763.878 119.922 764.153 119.945 764.405 119.945C764.974 119.945 765.474 119.844 765.915 119.651C766.699 119.298 766.86 118.739 766.882 118.431C766.91 118.046 766.791 117.486 766.038 117V117.014L766.043 117.018Z" fill="#911A1F"></path>
<path d="M817.655 91.1317L817.618 91.072C817.297 90.6087 816.912 90.2555 816.471 90.0123L816.352 89.9573C815.329 89.5353 814.315 88.7508 813.315 87.6453C812.384 86.5994 811.93 85.4755 811.93 84.2094V29.8127C811.93 27.9273 810.705 27.2529 809.572 27.2529H795.126C793.259 27.2529 791.36 27.2759 789.466 27.3309C787.456 27.386 785.511 27.7621 783.676 28.4548C780.296 29.7255 777.456 31.2302 775.204 32.9275C771.772 35.6569 768.946 38.602 766.809 41.6847C763.951 45.8363 761.914 49.9098 760.735 53.7907C759.529 57.9055 759.038 62.392 759.276 67.1123C759.446 71.0942 760.084 75.053 761.176 78.8743C762.304 82.801 764.428 86.2783 767.492 89.2004C769.768 91.3702 772.873 93.3061 776.74 94.9483C777.58 95.2924 778.63 95.6181 779.878 95.9117C780.268 96.0034 780.667 96.0493 781.075 96.0493C782.19 96.0493 783.364 95.7098 784.603 95.0401L799.076 86.7691V90.6225C799.076 93.5446 801.145 93.7648 801.783 93.7648H816.081C816.921 93.7648 817.503 93.4896 817.811 92.9482C818.017 92.5858 818.159 91.9711 817.65 91.1362H817.646L817.655 91.1317ZM799.081 37.5653V81.3377C798.668 81.5625 798.26 81.7781 797.865 81.9891C797.338 82.2735 796.796 82.5258 796.237 82.7414C794.521 83.4479 792.723 83.8699 790.883 84.0121C789.094 84.1497 787.03 83.7644 784.741 82.8836C782.002 81.8515 779.681 80.1542 777.837 77.8421C775.951 75.4842 774.561 72.8695 773.685 70.0528C772.584 66.6536 772.057 62.7406 772.125 58.4056C772.153 54.6485 772.708 50.997 773.763 47.5519C774.8 44.171 776.644 41.0241 779.231 38.2213C782.176 34.9918 785.686 33.4 789.915 33.4C790.704 33.4 791.53 33.455 792.374 33.5697C795.902 34.0605 798.104 35.3588 799.072 37.5607V37.5699L799.081 37.5653Z" fill="#911A1F"></path>
<path d="M457.297 81.1409C456.017 69.0716 450.663 59.3602 439.502 53.6214C434.906 51.2544 430.121 49.2314 425.282 46.9881C426.328 46.3964 427.47 45.7954 428.566 45.1211C434.268 41.5751 438.388 36.7951 439.746 30.07C442.805 14.9043 433.126 2.11018 416.891 1.29363C399.056 0.403686 381.156 0.678927 363.293 0.408273C360.788 0.371575 358.284 0.13762 355.774 0L355.027 1.1973C357.027 2.84874 358.834 4.88093 361.082 6.05529C363.49 7.30764 366.279 7.95445 368.967 8.50034C371.628 9.03706 374.371 9.11505 377.321 9.4224V89.2559C374.637 89.5082 372.472 89.7238 370.293 89.9073C365.715 90.2972 361.311 91.2193 357.141 92.8249C356.004 93.2377 355.316 93.4625 353.843 94.2928C353.843 94.2928 353.838 94.2928 353.834 94.2928C352.288 95.0497 350.774 95.9076 349.306 96.8938C344.251 100.284 340.774 104.835 339.512 110.908C336.989 123.033 342.388 133.001 354.449 138.524C366.504 144.043 379.317 144.928 392.257 144.277C411.332 143.309 428.213 136.758 442.113 123.358C454.095 111.803 459.04 97.5957 457.292 81.1455L457.297 81.1409ZM394.221 13.4638V13.473C394.225 12.1886 394.381 10.9133 394.505 8.87651C400.524 9.17468 406.414 8.89027 412.033 9.99123C414.942 10.5601 418.084 13.0739 419.859 15.597C424.594 22.322 422.873 34.6482 416.896 40.3365C415.667 41.5063 414.047 42.8412 412.492 43.0063C406.593 43.6073 400.652 43.7541 394.212 44.0981C394.212 33.3041 394.207 23.3863 394.221 13.4684V13.4638ZM377.532 136.565L377.546 136.556C369.628 135.336 362.866 131.689 357.591 125.592C349.935 116.743 351.962 105.027 362.297 99.793C366.798 97.5085 371.729 96.1186 377.771 93.8203C377.771 102.371 377.94 109.743 377.61 117.097C377.555 118.381 375.417 119.574 373.881 121.193H396.813C391.285 113.188 395.331 104.605 393.9 95.903C402.148 97.77 408.047 101.729 412.836 107.504C416.749 112.225 416.951 112.234 421.447 107.229C415.68 98.8939 407.9 93.3295 397.992 91.0175C395.134 90.3477 394.157 89.3889 394.193 86.4576C394.345 75.2095 394.253 63.9567 394.253 52.7865C417.011 48.5341 437.75 59.7134 438.057 84.1915C438.466 116.087 409.13 141.428 377.532 136.565Z" fill="#911A1F"></path>
<path d="M663.222 26.7257C645.992 25.588 628.923 43.7172 629.143 61.5023C629.39 81.0077 643.703 95.8294 663.098 95.9349C683.333 96.0404 696.214 83.1271 696.278 62.6721C696.343 41.685 682.562 26.7074 663.222 26.7165V26.7257ZM684.072 72.1908C683.659 78.8471 681.338 84.7143 675.131 87.7603C668.617 90.9485 662.396 88.6732 657.204 84.4161C647.442 76.4204 643.542 65.4979 642.703 53.8598C642.841 51.4698 642.703 49.6716 643.088 47.988C644.373 42.2768 646.304 36.7399 652.69 34.9875C659.809 33.0333 666.112 35.304 671.007 40.5611C678.255 48.3504 682.622 57.6444 683.975 68.2595C684.136 69.5577 684.154 70.888 684.067 72.1954L684.072 72.1908Z" fill="#911A1F"></path>
<path d="M494.596 25.8267C473.793 23.3587 458.604 37.4647 458.829 59.5115C458.934 61.0896 459.003 63.1401 459.214 65.1769C461.719 89.4393 488.559 103.27 508.528 90.5999C520.281 83.1409 525.359 67.2595 521.001 51.5708C517.189 37.8501 506.285 27.2166 494.601 25.8312V25.8221L494.596 25.8267ZM509.67 78.3563C507.074 86.8108 499.922 89.8338 492.027 85.8199C480.114 79.7692 474.499 69.1312 471.435 56.7912C470.765 54.1168 470.549 51.3323 470.127 48.5982C469.999 42.4649 471.513 36.9968 477.238 34.0288C482.793 31.1526 488.224 32.7994 492.743 36.6436C503.312 45.644 509.808 56.9334 510.652 71.0166C510.799 73.4479 510.39 76.0214 509.67 78.3563Z" fill="#911A1F"></path>
<path d="M544.98 71.4892C540.622 62.3008 539.915 52.594 541.787 42.745C543.64 33.0198 550.966 30.6619 558.476 37.1484C559.577 38.1026 560.59 39.176 561.554 40.2678C563.76 42.7679 565.907 45.3185 568.311 48.1167C572.054 45.3964 575.421 42.9422 578.742 40.5201C574.183 32.1849 569.834 28.3269 563.297 26.6113C551.182 23.446 537.461 29.8958 531.653 41.488C526.772 51.2453 526.419 61.5393 528.795 71.87C531.58 83.976 539.489 91.4442 551.512 94.3021C564.15 97.316 574.54 93.1323 583.027 83.6641C583.678 82.9393 583.876 81.8016 584.743 79.7877C582.743 80.7557 581.788 81.0584 581.036 81.6089C567.646 91.5726 551.186 84.5678 544.975 71.4709V71.4847L544.98 71.4892Z" fill="#911A1F"></path>
<path d="M616.35 32.2445C623.744 31.1297 630.465 31.2903 634.804 38.1805C640.557 34.5978 637.896 29.7948 638.341 26.0332H580.082V38.919C586.702 33.0381 593.541 30.4187 602.202 32.4096V36.9511C602.239 50.4287 602.216 63.9017 602.354 77.3747C602.409 82.9484 602.693 88.4899 598.335 92.8937C598.243 92.9946 598.473 93.4167 598.652 93.9763H618.753C617.762 89.311 616.079 84.82 615.969 80.2923C615.625 65.2183 615.84 50.1259 615.868 35.0427C615.868 34.0794 616.184 33.1206 616.336 32.2536L616.345 32.2445H616.35Z" fill="#911A1F"></path>
<path d="M353.747 94.2007C357.435 94.2007 356.852 92.5584 356.829 92.4208C356.793 92.1685 356.696 91.8795 356.504 91.5583L356.458 91.4895C356.137 91.0262 355.751 90.673 355.311 90.4299L355.201 90.3748C354.178 89.9528 353.164 89.1683 352.164 88.0628C351.233 87.0169 350.779 85.893 350.779 84.6269V30.2531C350.779 28.3677 349.558 27.6934 348.421 27.6934H333.975C332.108 27.6934 330.209 27.7163 328.319 27.7713C326.314 27.8264 324.369 28.2026 322.53 28.8952C319.149 30.1659 316.309 31.6706 314.057 33.3679C310.626 36.0974 307.804 39.0424 305.662 42.1251C302.804 46.2767 300.763 50.3502 299.588 54.2311C298.382 58.346 297.891 62.8324 298.125 67.5528C298.295 71.5346 298.932 75.4935 300.024 79.3147C301.153 83.2415 303.277 86.7187 306.341 89.6408C308.612 91.8106 311.722 93.7465 315.589 95.3888C316.429 95.7328 317.479 96.0585 318.727 96.3475C319.117 96.4393 319.516 96.4851 319.924 96.4851C321.039 96.4851 322.218 96.1457 323.452 95.4759L337.929 87.205V91.0583C337.929 93.9805 339.994 94.2007 340.636 94.2007H353.737H353.747ZM337.929 81.7781C337.517 82.0029 337.108 82.2185 336.714 82.4295C336.186 82.7231 335.64 82.9662 335.085 83.191C333.37 83.8975 331.571 84.3195 329.741 84.4617C327.947 84.5993 325.888 84.214 323.599 83.3332C320.864 82.3011 318.543 80.6038 316.695 78.2917C314.809 75.9338 313.419 73.3191 312.543 70.5024C311.442 67.1124 310.915 63.1902 310.983 58.8552C311.015 55.0981 311.571 51.4466 312.621 48.0015C313.658 44.6207 315.497 41.4829 318.085 38.6709C321.03 35.4414 324.544 33.8496 328.768 33.8496C329.562 33.8496 330.383 33.9046 331.227 34.0193C334.755 34.5102 336.952 35.8084 337.92 38.0103V81.7827L337.929 81.7781Z" fill="#911A1F"></path>
<path d="M127.22 117.454C124.1 115.454 121.408 112.748 119.215 109.39C117.293 106.513 115.765 103.339 114.673 99.9397C113.545 96.4167 112.375 92.9899 111.214 89.7558C109.907 86.0355 108.54 82.4207 107.132 79.0031C105.696 75.503 103.921 72.4845 101.856 70.0165C100.425 68.3559 99.081 66.8512 97.8653 65.5347C97.1405 64.7502 96.3607 64.0897 95.5349 63.5575C97.0671 62.796 98.5121 61.9795 99.8562 61.1217C101.925 59.8005 104.054 57.8922 106.182 55.4655C108.311 53.0342 110.086 50.3597 111.462 47.4927C112.577 45.1026 113.444 42.1484 114.045 38.7308C114.683 35.1114 114.091 31.9599 112.293 29.3681C110.632 27.0469 108.535 25.7762 106.022 25.5881C102.099 25.3954 99.3012 27.3634 97.9341 31.2764C97.6268 32.1985 97.5259 33.3132 97.636 34.6068C97.7369 35.7766 97.8607 36.7675 97.98 37.4877C98.136 38.6941 98.6773 40.0566 99.6498 41.6484C100.48 43.0016 101.109 44.41 101.535 45.8137C102.058 47.7679 101.81 49.7955 100.765 52.025C100.012 53.6489 98.9525 55.0847 97.5993 56.3004C96.1864 57.5756 94.801 58.6307 93.4936 59.4381C91.0118 60.9749 88.3649 62.1584 85.6355 62.9428C83.2684 63.6263 80.8555 64.1355 78.4563 64.4658V37.9418C78.4563 36.6482 78.9242 35.4509 79.8783 34.2674C80.8692 33.0471 81.8784 32.2168 82.906 31.7856C84.5299 31.047 84.5758 29.8039 84.5207 29.3038L84.507 29.2029C84.3785 28.5423 83.8143 27.8405 82.6537 27.8405H61.6528C60.3821 27.8405 59.8546 28.6341 59.7858 29.2993C59.6711 30.3543 60.2308 31.2535 61.3776 31.7994C62.3685 32.2168 63.3364 33.0379 64.2585 34.2444C65.1667 35.4279 65.6025 36.6436 65.6025 37.9418V84.7969C65.6025 86.0814 65.1713 87.2099 64.286 88.2558C63.3547 89.3567 62.3776 90.1228 61.373 90.5449L61.2446 90.6045C60.6849 90.9348 60.2445 91.3752 59.9372 91.9348C59.5518 92.7055 59.7674 93.2651 59.9372 93.5358C60.2537 94.045 60.8271 94.3065 61.6528 94.3065H82.6537C83.6537 94.3065 84.1079 93.8753 84.3143 93.5129C84.5207 93.1596 84.6584 92.5587 84.1767 91.7238C83.8785 91.2146 83.4611 90.8339 82.9473 90.577L82.8785 90.5449C81.8555 90.1228 80.8417 89.3384 79.8416 88.2328C78.9104 87.1869 78.4563 86.063 78.4563 84.7969V69.3513C80.961 68.8834 83.484 68.2229 85.9841 67.3834C87.2823 67.8696 88.6356 68.9064 90.0026 70.4661C91.2228 71.8973 92.1403 73.7644 92.7183 76.0259C93.333 78.4572 94.0487 81.0307 94.8331 83.6684C95.4111 85.719 96.0029 87.9025 96.5946 90.1549C97.1864 92.4211 97.8883 94.7148 98.6681 96.9259C100.031 101.045 101.622 104.49 103.388 107.16C105.21 109.995 107.939 112.771 111.49 115.404C115.086 118.069 119.563 119.725 124.765 120.33C125.059 120.367 125.334 120.39 125.587 120.39C126.155 120.39 126.655 120.289 127.091 120.097C127.876 119.743 128.036 119.184 128.059 118.876C128.091 118.491 127.967 117.931 127.215 117.445V117.459L127.22 117.454Z" fill="#911A1F"></path>
<path d="M178.79 91.5033C178.469 91.04 178.083 90.6867 177.643 90.4436L177.528 90.3886C176.505 89.9665 175.491 89.1821 174.491 88.0765C173.56 87.0306 173.106 85.9067 173.106 84.6406V30.2531C173.106 28.3677 171.886 27.6934 170.748 27.6934H156.303C154.435 27.6934 152.536 27.7163 150.646 27.7713C148.642 27.8264 146.697 28.2026 144.857 28.8952C141.476 30.1613 138.637 31.6706 136.384 33.3679C132.958 36.0974 130.136 39.0424 127.989 42.1251C125.132 46.2767 123.09 50.3502 121.916 54.2311C120.709 58.346 120.218 62.8278 120.457 67.5528C120.627 71.5346 121.264 75.4935 122.356 79.3147C123.48 83.2369 125.609 86.7095 128.678 89.6408C130.944 91.8106 134.058 93.7465 137.926 95.3933C138.765 95.7374 139.816 96.0631 141.063 96.3521C141.453 96.4439 141.857 96.4897 142.261 96.4897C143.375 96.4897 144.55 96.1503 145.788 95.4805L160.266 87.2095V91.0629C160.266 93.985 162.335 94.2052 162.973 94.2052H177.271C178.111 94.2052 178.693 93.93 179.001 93.3887C179.207 93.0263 179.345 92.4116 178.84 91.5767L178.803 91.517L178.794 91.5079L178.79 91.5033ZM160.252 38.0011V81.7735C159.839 81.9983 159.431 82.2093 159.037 82.4249C158.504 82.7185 157.959 82.9616 157.408 83.1864C155.692 83.8929 153.894 84.3149 152.064 84.4525C150.275 84.5902 148.21 84.2048 145.921 83.324C143.183 82.2919 140.862 80.5946 139.017 78.2826C137.132 75.9247 135.742 73.3099 134.866 70.4933C133.765 67.094 133.237 63.181 133.306 58.846C133.338 55.089 133.889 51.4374 134.944 47.9923C135.981 44.6115 137.82 41.4737 140.412 38.6617C143.357 35.4322 146.871 33.8404 151.096 33.8404C151.889 33.8404 152.711 33.8954 153.555 34.0101C157.082 34.501 159.28 35.7992 160.252 38.0011Z" fill="#911A1F"></path>
<path d="M229.994 62.3833C227.576 60.2456 223.888 58.4107 218.994 56.8922C222.521 55.8096 225.448 54.094 227.719 51.7728C231.554 47.8965 232.815 43.4926 231.471 38.6667C230.558 35.4372 228.549 32.6619 225.466 30.3866C222.801 28.5195 219.686 27.4507 216.195 27.203C213.452 27.0332 210.392 27.203 207.071 27.7122C205.988 27.914 204.933 28.125 203.933 28.359C202.952 28.5883 201.86 28.8498 200.644 29.1434C200.016 29.304 199.163 29.2994 198.121 29.1296C196.993 28.9462 196.153 28.7627 195.63 28.5838C194.855 28.3131 194.098 27.9599 193.387 27.5287C192.593 27.0516 191.855 26.6158 191.167 26.2213L191.098 26.1846C190.359 25.8314 189.699 25.7855 189.13 26.0561C188.763 26.235 188.268 26.625 188.052 27.5011C187.368 30.3315 186.8 32.928 186.355 35.2125C185.942 37.3639 185.084 39.7035 183.85 42.1256C183.451 42.855 183.052 43.7954 183.46 44.6257C183.689 45.0936 184.13 45.4009 184.621 45.4789C185.089 45.5844 185.804 45.5477 186.556 44.7954L187.194 44.1578L187.309 44.0293C188.034 43.0385 188.937 42.0981 190.002 41.254C191.125 40.3549 192.006 39.5475 192.639 38.8319C194.346 37.7263 195.938 36.7079 197.415 35.7951C198.846 34.9051 200.36 34.217 201.919 33.7583C203.764 33.2124 205.846 33.0427 208.117 33.2583C210.31 33.4647 212.076 34.2032 213.484 35.5015C215.09 37.0474 216.237 39.1897 216.897 41.8687C217.526 44.5752 217.443 46.9744 216.649 49.0112C216.044 50.5709 214.998 51.892 213.544 52.9563C212.108 54.0114 210.452 54.4701 208.456 54.3875L200.924 54.094C200.025 54.094 199.392 54.7224 199.392 55.6858L199.539 58.3235C199.539 59.1905 200.167 59.8052 201.071 59.8052L208.053 59.2134C210.135 59.0666 212.002 59.5529 213.741 60.6951C216.86 62.764 218.893 66.3926 219.778 71.4662C220.608 76.7417 219.792 81.274 217.356 84.9347C215.842 87.2008 213.856 88.7467 211.291 89.655C208.654 90.5863 205.988 91.0312 203.342 90.9624C201.213 90.9303 199.19 90.4165 197.332 89.4257C194.571 87.9577 193.249 86.1824 193.314 83.9897C193.35 81.3152 193.942 80.8932 194.015 80.8519C194.924 80.3381 195.837 79.5216 196.745 78.439C197.997 76.9068 199.011 75.0122 199.75 72.8103C200.571 70.3561 200.158 68.067 198.511 65.9981C197.217 64.3971 195.392 63.4705 193.075 63.2228C190.809 62.9842 188.841 63.4017 187.226 64.443C184.533 66.1862 182.969 68.8102 182.584 72.2002C182.276 74.2966 182.405 77.049 182.983 80.3794C183.575 83.8383 185.52 87.0999 188.749 90.0495C190.992 92.1184 193.717 93.5864 196.85 94.4167C199.887 95.2149 202.933 95.6782 205.92 95.7791H206.649C212.163 95.7791 217.333 94.6873 222.072 92.5359C225.728 90.8065 228.838 88.3522 231.297 85.2466C233.811 82.0722 235.049 78.0903 234.98 73.4067C234.875 68.9019 233.214 65.1907 230.04 62.3833L230.017 62.3925L229.994 62.3833Z" fill="#911A1F"></path>
<path d="M304.895 117.454C301.775 115.454 299.083 112.748 296.895 109.39C294.972 106.523 293.44 103.339 292.348 99.9397C291.225 96.4396 290.059 93.0037 288.89 89.7558C287.591 86.0447 286.215 82.4298 284.807 79.0031C283.371 75.503 281.591 72.4845 279.531 70.0165C278.1 68.3651 276.761 66.8558 275.54 65.5347C274.816 64.7502 274.031 64.0897 273.21 63.5575C274.733 62.796 276.178 61.9795 277.531 61.1217C279.596 59.8005 281.729 57.8922 283.857 55.4655C285.986 53.0342 287.761 50.3597 289.137 47.4927C290.252 45.1026 291.119 42.1484 291.72 38.7308C292.358 35.1114 291.775 31.9599 289.968 29.3681C288.307 27.0469 286.211 25.7762 283.697 25.5881C279.775 25.3954 276.976 27.3634 275.609 31.2764C275.302 32.1985 275.201 33.3224 275.311 34.6068C275.412 35.7995 275.527 36.7583 275.655 37.4877C275.807 38.7033 276.357 40.0566 277.325 41.6484C278.155 42.9925 278.788 44.41 279.21 45.8137C279.733 47.7679 279.481 49.7955 278.44 52.0249C277.687 53.6489 276.628 55.0847 275.274 56.3004C273.861 57.5756 272.476 58.6307 271.169 59.4381C268.687 60.9749 266.04 62.1584 263.311 62.9428C260.943 63.6263 258.531 64.1355 256.131 64.4658V37.9418C256.131 36.6482 256.599 35.4509 257.553 34.2674C258.544 33.0471 259.554 32.2168 260.581 31.7856C262.205 31.047 262.251 29.8039 262.196 29.3038L262.182 29.2121C262.054 28.5515 261.499 27.8451 260.329 27.8451H239.328C238.057 27.8451 237.53 28.6066 237.461 29.3038C237.406 29.8039 237.447 31.0333 239.053 31.8039C240.044 32.2214 241.012 33.0425 241.934 34.249C242.842 35.4325 243.278 36.6482 243.278 37.9464V84.8015C243.278 86.086 242.846 87.2144 241.966 88.2604C241.034 89.3613 240.057 90.1274 239.053 90.5494L238.924 90.6091C238.365 90.9394 237.924 91.3797 237.617 91.9486C237.232 92.7193 237.447 93.2789 237.617 93.5496C237.933 94.0588 238.511 94.3111 239.333 94.3111H260.333C261.333 94.3111 261.788 93.8799 261.994 93.5175C262.2 93.1642 262.338 92.5633 261.856 91.7284C261.558 91.2192 261.141 90.8384 260.627 90.5816L260.558 90.5494C259.535 90.1274 258.521 89.343 257.521 88.2374C256.59 87.1915 256.136 86.0676 256.136 84.8015V69.3559C258.641 68.888 261.164 68.2274 263.664 67.388C264.962 67.8742 266.315 68.911 267.682 70.4706C268.907 71.9019 269.82 73.769 270.393 76.0305C271.017 78.4664 271.724 81.0445 272.508 83.673C273.1 85.7694 273.692 87.953 274.27 90.1687C274.862 92.4348 275.559 94.7285 276.343 96.9396C277.706 101.059 279.297 104.504 281.064 107.174C282.894 110.009 285.614 112.784 289.169 115.417C292.77 118.083 297.243 119.743 302.445 120.344C302.734 120.381 303.014 120.404 303.266 120.404C303.835 120.404 304.335 120.303 304.771 120.11C305.555 119.757 305.716 119.197 305.739 118.89C305.771 118.505 305.647 117.945 304.895 117.459V117.468V117.454Z" fill="#911A1F"></path>
<path d="M17.6091 71.4892C13.2511 62.3008 12.5447 52.594 14.4209 42.745C16.2742 33.0198 23.6002 30.6619 31.1097 37.1484C32.2106 38.1026 33.2244 39.176 34.1832 40.2678C36.3897 42.7679 38.5366 45.3185 40.9403 48.1167C44.6836 45.3964 48.0507 42.9422 51.3719 40.5201C46.8121 32.1849 42.4633 28.3269 35.9264 26.6113C23.8112 23.446 10.0905 29.8958 4.28288 41.488C-0.593463 51.2499 -0.946689 61.5439 1.42497 71.8746C4.20948 83.9806 12.1181 91.4488 24.1415 94.3067C36.7796 97.3206 47.1745 93.1369 55.6611 83.6686C56.3125 82.9438 56.5052 81.8062 57.3768 79.7923C55.3767 80.7603 54.4225 81.063 53.6702 81.6135C40.2798 91.5772 23.8204 84.5723 17.6091 71.4755V71.4892Z" fill="#911A1F"></path>
</svg>